<svg xmlns="http://www.w3.org/2000/svg" viewBox="0 0 463.55 219"><title>book</title><rect x="6.88" y="1.3" width="178" height="216.5" fill="none" stroke="#4b4b4b" stroke-miterlimit="10" stroke-width="0.75"/><polygon points="182.68 217.8 4.67 218.5 4.67 2 182.68 2 182.68 217.8" fill="none" stroke="#4b4b4b" stroke-miterlimit="10" stroke-width="0.75"/><rect x="2.48" y="1.3" width="178" height="216.5" fill="none" stroke="#4b4b4b" stroke-miterlimit="10" stroke-width="0.75"/><polygon points="178.38 217.4 0.38 218.5 0.38 2 178.38 2 178.38 217.4" fill="none" stroke="#4b4b4b" stroke-miterlimit="10" stroke-width="0.75"/><path d="M237,18.8v-7a4.72,4.72,0,0,0-3.6-4.6L15,6.5v218l218.4-.7a4.72,4.72,0,0,0,3.6-4.6v-5.4" transform="translate(-5.23 -6)" fill="#fff" stroke="#000" stroke-linecap="round" stroke-miterlimit="10"/><rect x="278.63" y="1.34" width="178" height="216.5" fill="none" stroke="#4b4b4b" stroke-miterlimit="10" stroke-width="0.75"/><polygon points="280.77 217.8 458.77 218.5 458.77 2 280.77 2 280.77 217.8" fill="none" stroke="#4b4b4b" stroke-miterlimit="10" stroke-width="0.75"/><rect x="283.06" y="1.34" width="178" height="216.5" fill="none" stroke="#4b4b4b" stroke-miterlimit="10" stroke-width="0.75"/><polygon points="285.18 217.4 463.18 218.5 463.18 2 285.18 2 285.18 217.4" fill="none" stroke="#4b4b4b" stroke-miterlimit="10" stroke-width="0.75"/><path d="M237,18.8v-7a4.72,4.72,0,0,1,3.6-4.6L459,6.5v218l-218.4-.7a4.72,4.72,0,0,1-3.6-4.6v-5.4" transform="translate(-5.23 -6)" fill="#fff" stroke="#000" stroke-linecap="round" stroke-miterlimit="10"/><line x1="231.77" y1="16.7" x2="231.77" y2="22.7" fill="none" stroke="#c1c1c1" stroke-linecap="round" stroke-miterlimit="10" stroke-width="0.5"/><line x1="231.77" y1="42" x2="231.77" y2="186.6" fill="none" stroke="#c1c1c1" stroke-linecap="round" stroke-miterlimit="10" stroke-width="0.5" stroke-dasharray="11.57 19.28"/><line x1="231.77" y1="196.2" x2="231.77" y2="202.2" fill="none" stroke="#c1c1c1" stroke-linecap="round" stroke-miterlimit="10" stroke-width="0.5"/></svg>